# xmcd
#
# Track frame offsets: 
#        150
#        12150
#        31070
#        47247
#        63505
#        76930
#        87555
#        116397
#        124030
#        144745
#
# Disc length: 2087 seconds
#
# Revision: 6
# Processed by: cddbd v1.5.2PL0 Copyright (c) Steve Scherf et al.
# Submitted via: ExactAudioCopy v0.99pb4
#
DISCID=7e08250a
DTITLE=B.B. King - Live at the Regal [MFSL Ultradisc I]
DYEAR=1965
DGENRE=Blues
TTITLE0=Every Day I Have the Blues
TTITLE1=Sweet Little Angel
TTITLE2=It's My Own Fault
TTITLE3=How Blue Can You Get?
TTITLE4=Please Love Me
TTITLE5=You Upset Me Baby
TTITLE6=Worry, Worry
TTITLE7=Woke Up This Mornin'
TTITLE8=You Done Lost Your Good Thing Now
TTITLE9=Help the Poor
EXTD=A Classic Revisited\n--------------\n\nB.B. King: Live at the Reg
EXTD=al\nThe definitive recording of blues live in performance...\nThi
EXTD=s unique Regal session is the definitive statement of B.B.\nKing'
EXTD=s phenomenal rapport with a crowd, of the miraculous\nvibrations 
EXTD=that can exist between audience and performer.\nIn essence, it te
EXTD=lls you how, where and why he ultimately\nbecame King of the Blue
EXTD=s...\n\n\nIntroduced by Dicsc Jockey E. Rodney Jones\nProduced by
EXTD=Johnny Pate\n\n(c) 1971 MCA Records, Inc.\nMCABD 31106\n7673-111
EXTD=06-2\n YEAR: 1991
EXTT0=
EXTT1=
EXTT2=
EXTT3=
EXTT4=
EXTT5=
EXTT6=
EXTT7=
EXTT8=
EXTT9=
PLAYORDER=
